<?xml version="1.0" encoding="utf-8"?>
<!-- Generator: Adobe Illustrator 25.3.0, SVG Export Plug-In . SVG Version: 6.00 Build 0)  -->
<svg version="1.1" id="Ebene_1" xmlns="http://www.w3.org/2000/svg" xmlns:xlink="http://www.w3.org/1999/xlink" x="0px" y="0px"
	 viewBox="0 0 105.63 105.086" style="enable-background:new 0 0 105.63 105.086;" xml:space="preserve">
<style type="text/css">
	.st0{clip-path:url(#SVGID_2_);fill:#55FFFF;}
	.st1{clip-path:url(#SVGID_2_);fill:#AA0000;}
	.st2{clip-path:url(#SVGID_2_);fill:none;stroke:#1D1D1B;}
	.st3{fill:none;stroke:#55FFFF;}
	.st4{fill:#FF5555;}
	.st5{fill:#FFFFFF;}
</style>
<g>
	<defs>
		<rect id="SVGID_1_" x="0.823" y="0.317" width="120.189" height="109.764"/>
	</defs>
	<clipPath id="SVGID_2_">
		<use xlink:href="#SVGID_1_"  style="overflow:visible;"/>
	</clipPath>
	<path class="st0" d="M0.823,52.478c0,28.118,22.281,51.021,50.148,52.047L18.878,13.06C7.827,22.613,0.823,36.723,0.823,52.478
		 M100.508,73.676c2.89-6.478,4.51-13.647,4.51-21.198c0-19.882-11.14-37.157-27.516-45.938L100.508,73.676z"/>
	<path class="st1" d="M121.012,110.081"/>
	<path class="st2" d="M121.012,110.081"/>
	<path class="st1" d="M17.122,5.341"/>
</g>
<path class="st3" d="M17.122,5.341"/>
<g>
	<path class="st4" d="M18.841,12.997l32.093,91.466c0.648,0.024,1.295,0.049,1.949,0.049c21.221,0,39.466-12.695,47.588-30.899
		L77.465,6.477C70.142,2.55,61.774,0.318,52.883,0.318C39.865,0.318,27.973,5.103,18.841,12.997"/>
	<path class="st5" d="M69.68,45.176c-0.007,1.467-0.304,2.727-0.894,3.779c-0.59,1.053-1.523,1.872-2.799,2.458
		c-1.276,0.587-3,0.88-5.174,0.88h-6.108l-7.382-22.721h5.797c1.414,0,2.817,0.095,4.207,0.284c1.39,0.19,2.806,0.647,4.25,1.372
		c1.443,0.724,2.825,1.846,4.147,3.364c1.321,1.519,2.363,3.451,3.125,5.797C69.41,42.115,69.687,43.71,69.68,45.176 M79.228,32.03
		c-1.471-2.191-3.197-4.106-5.179-5.745c-1.982-1.639-4.174-2.993-6.574-4.063c-2.4-1.069-4.666-1.803-6.796-2.2
		c-2.13-0.396-3.931-0.655-5.402-0.776c-1.472-0.121-3.001-0.181-4.588-0.181H34.903c-1.38,0-2.361,0.406-2.943,1.216
		c-0.583,0.811-0.609,2.027-0.083,3.649l19.576,60.246c0.112,0.345,0.316,0.656,0.613,0.932c0.297,0.276,0.732,0.5,1.305,0.672
		c0.574,0.174,1.318,0.311,2.231,0.415c0.914,0.103,2.025,0.155,3.337,0.155c1.346,0,2.433-0.052,3.262-0.155
		c0.829-0.104,1.475-0.241,1.936-0.415c0.462-0.172,0.759-0.396,0.894-0.672c0.135-0.276,0.146-0.587,0.034-0.932L58.119,62.8h5.59
		c4.417,0,8.087-0.518,11.012-1.553c2.924-1.035,5.185-2.544,6.784-4.529c1.598-1.983,2.512-4.425,2.744-7.323
		c0.231-2.899-0.264-6.228-1.486-9.99C81.878,36.68,80.699,34.222,79.228,32.03"/>
	<path class="st4" d="M37.846,82.039c-0.185-0.2-0.406-0.301-0.661-0.301H26.029l-6.407-28.492
		c-0.041-0.182-0.133-0.346-0.277-0.492c-0.144-0.146-0.363-0.264-0.657-0.356c-0.294-0.091-0.678-0.159-1.153-0.205
		c-0.475-0.045-1.059-0.068-1.752-0.068c-0.711,0-1.289,0.023-1.735,0.068c-0.445,0.046-0.799,0.114-1.061,0.205
		c-0.262,0.092-0.435,0.21-0.519,0.356s-0.097,0.31-0.037,0.492l7.196,32.156c0.097,0.401,0.233,0.743,0.408,1.026
		c0.175,0.283,0.38,0.519,0.616,0.711c0.236,0.191,0.495,0.328,0.776,0.41s0.567,0.123,0.859,0.123h16.215
		c0.236,0,0.404-0.1,0.501-0.301c0.097-0.2,0.146-0.46,0.148-0.779c0.001-0.319-0.03-0.67-0.092-1.053
		c-0.062-0.383-0.139-0.756-0.23-1.121c-0.091-0.365-0.182-0.688-0.275-0.971c-0.092-0.282-0.166-0.487-0.22-0.615
		C38.194,82.504,38.031,82.24,37.846,82.039"/>
</g>
</svg>
